<svg xmlns="http://www.w3.org/2000/svg" viewBox="0 0 320 86" role="img" aria-label="Powered by Strike Media — PR &amp; Advertising Agency">
  <title>Powered by Strike Media — PR &amp; Advertising Agency</title>

  <!-- Stylized red 'S' swoosh icon -->
  <g transform="translate(0 4)">
    <!-- Top crescent: opens to the bottom-right -->
    <path d="M 8 28
             C 8 10, 32 2, 56 6
             C 60 6.5, 63 7.5, 65 9
             L 60 19
             C 58 17.6, 55.5 16.8, 52 16.5
             C 36 15, 22 19, 22 30
             C 22 32.5, 22.8 34.4, 24 36
             L 14 42
             C 10 38, 8 33.5, 8 28 Z"
          fill="#E3342F"/>
    <!-- Bottom crescent: opens to the top-left -->
    <path d="M 70 50
             C 70 68, 46 76, 22 72
             C 18 71.5, 15 70.5, 13 69
             L 18 59
             C 20 60.4, 22.5 61.2, 26 61.5
             C 42 63, 56 59, 56 48
             C 56 45.5, 55.2 43.6, 54 42
             L 64 36
             C 68 40, 70 44.5, 70 50 Z"
          fill="#E3342F"/>
  </g>

  <!-- Powered By -->
  <text x="92" y="18"
        font-family="'Helvetica Neue', Arial, sans-serif"
        font-size="11" font-weight="700"
        letter-spacing="0.6"
        fill="#E3342F">POWERED BY</text>

  <!-- Strike media wordmark -->
  <g font-family="'Helvetica Neue', Arial, sans-serif" font-size="38" font-weight="800">
    <text x="92" y="56" fill="#E3342F">Strike</text>
    <text x="196" y="56" fill="#2A2A2A" font-weight="600" font-style="italic">media</text>
  </g>

  <!-- Tagline -->
  <text x="92" y="76"
        font-family="'Helvetica Neue', Arial, sans-serif"
        font-size="9.5" font-weight="600"
        letter-spacing="1.4"
        fill="#3A3A3A">PR &amp; ADVERTISING AGENCY</text>
</svg>
